<svg xmlns="http://www.w3.org/2000/svg" width="800" height="800" viewBox="0 0 800 800">
  <defs>
    <filter id="w1" x="-25%" y="-25%" width="150%" height="150%">
      <feTurbulence type="turbulence" baseFrequency="0.006 0.005" numOctaves="5" seed="2" result="t"/>
      <feDisplacementMap in="SourceGraphic" in2="t" scale="65" xChannelSelector="R" yChannelSelector="G"/>
    </filter>
    <filter id="w2" x="-25%" y="-25%" width="150%" height="150%">
      <feTurbulence type="turbulence" baseFrequency="0.009 0.007" numOctaves="4" seed="11" result="t"/>
      <feDisplacementMap in="SourceGraphic" in2="t" scale="50" xChannelSelector="R" yChannelSelector="G"/>
    </filter>
    <filter id="w3" x="-25%" y="-25%" width="150%" height="150%">
      <feTurbulence type="turbulence" baseFrequency="0.012 0.008" numOctaves="3" seed="19" result="t"/>
      <feDisplacementMap in="SourceGraphic" in2="t" scale="40" xChannelSelector="R" yChannelSelector="G"/>
    </filter>
  </defs>

  <!-- Layer 1: Major terrain features — dense contour clusters -->
  <g fill="none" stroke-linecap="round" filter="url(#w1)">
    <!-- Peak A: upper-left (12 rings) -->
    <circle cx="120" cy="110" r="8" stroke="rgba(0,0,0,0.210)" stroke-width="0.7"/>
    <circle cx="120" cy="110" r="14" stroke="rgba(0,0,0,0.193)" stroke-width="0.7"/>
    <circle cx="120" cy="110" r="21" stroke="rgba(0,0,0,0.175)" stroke-width="0.6"/>
    <circle cx="120" cy="110" r="29" stroke="rgba(0,0,0,0.158)" stroke-width="0.6"/>
    <circle cx="120" cy="110" r="38" stroke="rgba(0,0,0,0.140)" stroke-width="0.6"/>
    <circle cx="120" cy="110" r="48" stroke="rgba(0,0,0,0.123)" stroke-width="0.5"/>
    <circle cx="120" cy="110" r="60" stroke="rgba(0,0,0,0.105)" stroke-width="0.5"/>
    <circle cx="120" cy="110" r="74" stroke="rgba(0,0,0,0.088)" stroke-width="0.5"/>
    <circle cx="120" cy="110" r="90" stroke="rgba(0,0,0,0.070)" stroke-width="0.4"/>
    <circle cx="120" cy="110" r="110" stroke="rgba(0,0,0,0.063)" stroke-width="0.4"/>
    <circle cx="120" cy="110" r="134" stroke="rgba(0,0,0,0.052)" stroke-width="0.4"/>
    <circle cx="120" cy="110" r="162" stroke="rgba(0,0,0,0.042)" stroke-width="0.3"/>

    <!-- Peak B: center-dominant (14 rings) -->
    <circle cx="400" cy="370" r="6" stroke="rgba(0,0,0,0.228)" stroke-width="0.8"/>
    <circle cx="400" cy="370" r="12" stroke="rgba(0,0,0,0.210)" stroke-width="0.7"/>
    <circle cx="400" cy="370" r="19" stroke="rgba(0,0,0,0.193)" stroke-width="0.7"/>
    <circle cx="400" cy="370" r="27" stroke="rgba(0,0,0,0.175)" stroke-width="0.6"/>
    <circle cx="400" cy="370" r="36" stroke="rgba(0,0,0,0.158)" stroke-width="0.6"/>
    <circle cx="400" cy="370" r="46" stroke="rgba(0,0,0,0.140)" stroke-width="0.6"/>
    <circle cx="400" cy="370" r="58" stroke="rgba(0,0,0,0.123)" stroke-width="0.5"/>
    <circle cx="400" cy="370" r="72" stroke="rgba(0,0,0,0.105)" stroke-width="0.5"/>
    <circle cx="400" cy="370" r="88" stroke="rgba(0,0,0,0.088)" stroke-width="0.5"/>
    <circle cx="400" cy="370" r="108" stroke="rgba(0,0,0,0.077)" stroke-width="0.4"/>
    <circle cx="400" cy="370" r="132" stroke="rgba(0,0,0,0.063)" stroke-width="0.4"/>
    <circle cx="400" cy="370" r="160" stroke="rgba(0,0,0,0.052)" stroke-width="0.4"/>
    <circle cx="400" cy="370" r="195" stroke="rgba(0,0,0,0.042)" stroke-width="0.3"/>
    <circle cx="400" cy="370" r="235" stroke="rgba(0,0,0,0.032)" stroke-width="0.3"/>

    <!-- Peak C: right (11 rings) -->
    <circle cx="660" cy="190" r="8" stroke="rgba(0,0,0,0.193)" stroke-width="0.7"/>
    <circle cx="660" cy="190" r="15" stroke="rgba(0,0,0,0.175)" stroke-width="0.6"/>
    <circle cx="660" cy="190" r="23" stroke="rgba(0,0,0,0.158)" stroke-width="0.6"/>
    <circle cx="660" cy="190" r="32" stroke="rgba(0,0,0,0.140)" stroke-width="0.5"/>
    <circle cx="660" cy="190" r="42" stroke="rgba(0,0,0,0.123)" stroke-width="0.5"/>
    <circle cx="660" cy="190" r="54" stroke="rgba(0,0,0,0.105)" stroke-width="0.5"/>
    <circle cx="660" cy="190" r="68" stroke="rgba(0,0,0,0.088)" stroke-width="0.4"/>
    <circle cx="660" cy="190" r="85" stroke="rgba(0,0,0,0.070)" stroke-width="0.4"/>
    <circle cx="660" cy="190" r="105" stroke="rgba(0,0,0,0.056)" stroke-width="0.4"/>
    <circle cx="660" cy="190" r="130" stroke="rgba(0,0,0,0.042)" stroke-width="0.3"/>
    <circle cx="660" cy="190" r="160" stroke="rgba(0,0,0,0.032)" stroke-width="0.3"/>

    <!-- Peak D: lower-left (10 rings) -->
    <circle cx="190" cy="610" r="7" stroke="rgba(0,0,0,0.193)" stroke-width="0.7"/>
    <circle cx="190" cy="610" r="14" stroke="rgba(0,0,0,0.175)" stroke-width="0.6"/>
    <circle cx="190" cy="610" r="22" stroke="rgba(0,0,0,0.158)" stroke-width="0.6"/>
    <circle cx="190" cy="610" r="32" stroke="rgba(0,0,0,0.140)" stroke-width="0.5"/>
    <circle cx="190" cy="610" r="44" stroke="rgba(0,0,0,0.123)" stroke-width="0.5"/>
    <circle cx="190" cy="610" r="58" stroke="rgba(0,0,0,0.098)" stroke-width="0.5"/>
    <circle cx="190" cy="610" r="75" stroke="rgba(0,0,0,0.077)" stroke-width="0.4"/>
    <circle cx="190" cy="610" r="96" stroke="rgba(0,0,0,0.063)" stroke-width="0.4"/>
    <circle cx="190" cy="610" r="122" stroke="rgba(0,0,0,0.049)" stroke-width="0.3"/>
    <circle cx="190" cy="610" r="155" stroke="rgba(0,0,0,0.035)" stroke-width="0.3"/>

    <!-- Peak E: lower-right (11 rings) -->
    <circle cx="630" cy="590" r="8" stroke="rgba(0,0,0,0.210)" stroke-width="0.7"/>
    <circle cx="630" cy="590" r="16" stroke="rgba(0,0,0,0.193)" stroke-width="0.6"/>
    <circle cx="630" cy="590" r="25" stroke="rgba(0,0,0,0.175)" stroke-width="0.6"/>
    <circle cx="630" cy="590" r="35" stroke="rgba(0,0,0,0.140)" stroke-width="0.5"/>
    <circle cx="630" cy="590" r="47" stroke="rgba(0,0,0,0.123)" stroke-width="0.5"/>
    <circle cx="630" cy="590" r="61" stroke="rgba(0,0,0,0.098)" stroke-width="0.5"/>
    <circle cx="630" cy="590" r="78" stroke="rgba(0,0,0,0.077)" stroke-width="0.4"/>
    <circle cx="630" cy="590" r="98" stroke="rgba(0,0,0,0.063)" stroke-width="0.4"/>
    <circle cx="630" cy="590" r="122" stroke="rgba(0,0,0,0.049)" stroke-width="0.3"/>
    <circle cx="630" cy="590" r="152" stroke="rgba(0,0,0,0.035)" stroke-width="0.3"/>
    <circle cx="630" cy="590" r="188" stroke="rgba(0,0,0,0.028)" stroke-width="0.3"/>
  </g>

  <!-- Layer 2: Secondary terrain with different warp -->
  <g fill="none" stroke-linecap="round" filter="url(#w2)">
    <!-- Peak F: top-center -->
    <circle cx="430" cy="75" r="6" stroke="rgba(0,0,0,0.193)" stroke-width="0.6"/>
    <circle cx="430" cy="75" r="13" stroke="rgba(0,0,0,0.168)" stroke-width="0.6"/>
    <circle cx="430" cy="75" r="21" stroke="rgba(0,0,0,0.140)" stroke-width="0.5"/>
    <circle cx="430" cy="75" r="31" stroke="rgba(0,0,0,0.116)" stroke-width="0.5"/>
    <circle cx="430" cy="75" r="43" stroke="rgba(0,0,0,0.088)" stroke-width="0.4"/>
    <circle cx="430" cy="75" r="58" stroke="rgba(0,0,0,0.070)" stroke-width="0.4"/>
    <circle cx="430" cy="75" r="76" stroke="rgba(0,0,0,0.052)" stroke-width="0.3"/>
    <circle cx="430" cy="75" r="100" stroke="rgba(0,0,0,0.035)" stroke-width="0.3"/>

    <!-- Peak G: bottom-center -->
    <circle cx="370" cy="730" r="8" stroke="rgba(0,0,0,0.175)" stroke-width="0.6"/>
    <circle cx="370" cy="730" r="16" stroke="rgba(0,0,0,0.150)" stroke-width="0.5"/>
    <circle cx="370" cy="730" r="26" stroke="rgba(0,0,0,0.123)" stroke-width="0.5"/>
    <circle cx="370" cy="730" r="38" stroke="rgba(0,0,0,0.098)" stroke-width="0.4"/>
    <circle cx="370" cy="730" r="54" stroke="rgba(0,0,0,0.077)" stroke-width="0.4"/>
    <circle cx="370" cy="730" r="74" stroke="rgba(0,0,0,0.056)" stroke-width="0.3"/>
    <circle cx="370" cy="730" r="100" stroke="rgba(0,0,0,0.038)" stroke-width="0.3"/>

    <!-- Peak H: between A and B -->
    <circle cx="260" cy="240" r="6" stroke="rgba(0,0,0,0.175)" stroke-width="0.6"/>
    <circle cx="260" cy="240" r="13" stroke="rgba(0,0,0,0.150)" stroke-width="0.5"/>
    <circle cx="260" cy="240" r="22" stroke="rgba(0,0,0,0.123)" stroke-width="0.5"/>
    <circle cx="260" cy="240" r="33" stroke="rgba(0,0,0,0.098)" stroke-width="0.4"/>
    <circle cx="260" cy="240" r="47" stroke="rgba(0,0,0,0.077)" stroke-width="0.4"/>
    <circle cx="260" cy="240" r="64" stroke="rgba(0,0,0,0.056)" stroke-width="0.3"/>
    <circle cx="260" cy="240" r="85" stroke="rgba(0,0,0,0.038)" stroke-width="0.3"/>
    <circle cx="260" cy="240" r="112" stroke="rgba(0,0,0,0.028)" stroke-width="0.3"/>

    <!-- Peak I: between B and C -->
    <circle cx="545" cy="270" r="6" stroke="rgba(0,0,0,0.175)" stroke-width="0.6"/>
    <circle cx="545" cy="270" r="14" stroke="rgba(0,0,0,0.140)" stroke-width="0.5"/>
    <circle cx="545" cy="270" r="24" stroke="rgba(0,0,0,0.116)" stroke-width="0.5"/>
    <circle cx="545" cy="270" r="36" stroke="rgba(0,0,0,0.088)" stroke-width="0.4"/>
    <circle cx="545" cy="270" r="52" stroke="rgba(0,0,0,0.070)" stroke-width="0.4"/>
    <circle cx="545" cy="270" r="72" stroke="rgba(0,0,0,0.049)" stroke-width="0.3"/>
    <circle cx="545" cy="270" r="98" stroke="rgba(0,0,0,0.035)" stroke-width="0.3"/>

    <!-- Peak J: between D and E -->
    <circle cx="415" cy="550" r="5" stroke="rgba(0,0,0,0.168)" stroke-width="0.5"/>
    <circle cx="415" cy="550" r="12" stroke="rgba(0,0,0,0.140)" stroke-width="0.5"/>
    <circle cx="415" cy="550" r="21" stroke="rgba(0,0,0,0.116)" stroke-width="0.4"/>
    <circle cx="415" cy="550" r="32" stroke="rgba(0,0,0,0.088)" stroke-width="0.4"/>
    <circle cx="415" cy="550" r="46" stroke="rgba(0,0,0,0.070)" stroke-width="0.3"/>
    <circle cx="415" cy="550" r="64" stroke="rgba(0,0,0,0.049)" stroke-width="0.3"/>

    <!-- Peak K: left edge -->
    <circle cx="45" cy="400" r="7" stroke="rgba(0,0,0,0.168)" stroke-width="0.6"/>
    <circle cx="45" cy="400" r="16" stroke="rgba(0,0,0,0.140)" stroke-width="0.5"/>
    <circle cx="45" cy="400" r="28" stroke="rgba(0,0,0,0.116)" stroke-width="0.5"/>
    <circle cx="45" cy="400" r="44" stroke="rgba(0,0,0,0.088)" stroke-width="0.4"/>
    <circle cx="45" cy="400" r="64" stroke="rgba(0,0,0,0.070)" stroke-width="0.4"/>
    <circle cx="45" cy="400" r="90" stroke="rgba(0,0,0,0.049)" stroke-width="0.3"/>
    <circle cx="45" cy="400" r="124" stroke="rgba(0,0,0,0.035)" stroke-width="0.3"/>

    <!-- Peak L: right edge -->
    <circle cx="760" cy="440" r="7" stroke="rgba(0,0,0,0.168)" stroke-width="0.6"/>
    <circle cx="760" cy="440" r="16" stroke="rgba(0,0,0,0.140)" stroke-width="0.5"/>
    <circle cx="760" cy="440" r="28" stroke="rgba(0,0,0,0.116)" stroke-width="0.4"/>
    <circle cx="760" cy="440" r="44" stroke="rgba(0,0,0,0.088)" stroke-width="0.4"/>
    <circle cx="760" cy="440" r="66" stroke="rgba(0,0,0,0.063)" stroke-width="0.3"/>
    <circle cx="760" cy="440" r="94" stroke="rgba(0,0,0,0.042)" stroke-width="0.3"/>
  </g>

  <!-- Layer 3: Tertiary micro-features filling gaps -->
  <g fill="none" stroke-linecap="round" filter="url(#w3)">
    <!-- Upper-right -->
    <circle cx="720" cy="80" r="5" stroke="rgba(0,0,0,0.158)" stroke-width="0.5"/>
    <circle cx="720" cy="80" r="12" stroke="rgba(0,0,0,0.123)" stroke-width="0.4"/>
    <circle cx="720" cy="80" r="22" stroke="rgba(0,0,0,0.088)" stroke-width="0.4"/>
    <circle cx="720" cy="80" r="36" stroke="rgba(0,0,0,0.063)" stroke-width="0.3"/>
    <circle cx="720" cy="80" r="54" stroke="rgba(0,0,0,0.042)" stroke-width="0.3"/>
    <circle cx="720" cy="80" r="78" stroke="rgba(0,0,0,0.028)" stroke-width="0.3"/>

    <!-- Lower-left corner -->
    <circle cx="75" cy="720" r="6" stroke="rgba(0,0,0,0.140)" stroke-width="0.5"/>
    <circle cx="75" cy="720" r="14" stroke="rgba(0,0,0,0.116)" stroke-width="0.4"/>
    <circle cx="75" cy="720" r="25" stroke="rgba(0,0,0,0.088)" stroke-width="0.4"/>
    <circle cx="75" cy="720" r="40" stroke="rgba(0,0,0,0.063)" stroke-width="0.3"/>
    <circle cx="75" cy="720" r="60" stroke="rgba(0,0,0,0.042)" stroke-width="0.3"/>

    <!-- Scatter fills -->
    <circle cx="295" cy="445" r="4" stroke="rgba(0,0,0,0.140)" stroke-width="0.4"/>
    <circle cx="295" cy="445" r="10" stroke="rgba(0,0,0,0.105)" stroke-width="0.4"/>
    <circle cx="295" cy="445" r="18" stroke="rgba(0,0,0,0.077)" stroke-width="0.3"/>
    <circle cx="295" cy="445" r="30" stroke="rgba(0,0,0,0.052)" stroke-width="0.3"/>
    <circle cx="295" cy="445" r="46" stroke="rgba(0,0,0,0.035)" stroke-width="0.3"/>

    <circle cx="555" cy="495" r="4" stroke="rgba(0,0,0,0.140)" stroke-width="0.4"/>
    <circle cx="555" cy="495" r="10" stroke="rgba(0,0,0,0.105)" stroke-width="0.4"/>
    <circle cx="555" cy="495" r="18" stroke="rgba(0,0,0,0.077)" stroke-width="0.3"/>
    <circle cx="555" cy="495" r="30" stroke="rgba(0,0,0,0.052)" stroke-width="0.3"/>

    <circle cx="155" cy="345" r="4" stroke="rgba(0,0,0,0.123)" stroke-width="0.4"/>
    <circle cx="155" cy="345" r="10" stroke="rgba(0,0,0,0.088)" stroke-width="0.3"/>
    <circle cx="155" cy="345" r="20" stroke="rgba(0,0,0,0.063)" stroke-width="0.3"/>
    <circle cx="155" cy="345" r="34" stroke="rgba(0,0,0,0.042)" stroke-width="0.3"/>

    <circle cx="685" cy="375" r="4" stroke="rgba(0,0,0,0.123)" stroke-width="0.4"/>
    <circle cx="685" cy="375" r="10" stroke="rgba(0,0,0,0.088)" stroke-width="0.3"/>
    <circle cx="685" cy="375" r="20" stroke="rgba(0,0,0,0.063)" stroke-width="0.3"/>

    <circle cx="480" cy="170" r="4" stroke="rgba(0,0,0,0.123)" stroke-width="0.4"/>
    <circle cx="480" cy="170" r="11" stroke="rgba(0,0,0,0.088)" stroke-width="0.3"/>
    <circle cx="480" cy="170" r="22" stroke="rgba(0,0,0,0.063)" stroke-width="0.3"/>
    <circle cx="480" cy="170" r="38" stroke="rgba(0,0,0,0.042)" stroke-width="0.3"/>

    <circle cx="95" cy="195" r="4" stroke="rgba(0,0,0,0.105)" stroke-width="0.3"/>
    <circle cx="95" cy="195" r="12" stroke="rgba(0,0,0,0.077)" stroke-width="0.3"/>
    <circle cx="95" cy="195" r="24" stroke="rgba(0,0,0,0.052)" stroke-width="0.3"/>

    <circle cx="705" cy="650" r="4" stroke="rgba(0,0,0,0.105)" stroke-width="0.3"/>
    <circle cx="705" cy="650" r="12" stroke="rgba(0,0,0,0.077)" stroke-width="0.3"/>
    <circle cx="705" cy="650" r="24" stroke="rgba(0,0,0,0.052)" stroke-width="0.3"/>
    <circle cx="705" cy="650" r="42" stroke="rgba(0,0,0,0.035)" stroke-width="0.3"/>

    <circle cx="345" cy="145" r="4" stroke="rgba(0,0,0,0.105)" stroke-width="0.3"/>
    <circle cx="345" cy="145" r="11" stroke="rgba(0,0,0,0.077)" stroke-width="0.3"/>
    <circle cx="345" cy="145" r="22" stroke="rgba(0,0,0,0.052)" stroke-width="0.3"/>

    <circle cx="500" cy="680" r="4" stroke="rgba(0,0,0,0.105)" stroke-width="0.3"/>
    <circle cx="500" cy="680" r="12" stroke="rgba(0,0,0,0.077)" stroke-width="0.3"/>
    <circle cx="500" cy="680" r="24" stroke="rgba(0,0,0,0.052)" stroke-width="0.3"/>

    <!-- Extra saddle and ridge connectors -->
    <circle cx="320" cy="310" r="4" stroke="rgba(0,0,0,0.098)" stroke-width="0.3"/>
    <circle cx="320" cy="310" r="12" stroke="rgba(0,0,0,0.070)" stroke-width="0.3"/>
    <circle cx="320" cy="310" r="24" stroke="rgba(0,0,0,0.049)" stroke-width="0.3"/>
    <circle cx="320" cy="310" r="42" stroke="rgba(0,0,0,0.032)" stroke-width="0.3"/>

    <circle cx="530" cy="460" r="4" stroke="rgba(0,0,0,0.098)" stroke-width="0.3"/>
    <circle cx="530" cy="460" r="12" stroke="rgba(0,0,0,0.070)" stroke-width="0.3"/>
    <circle cx="530" cy="460" r="24" stroke="rgba(0,0,0,0.049)" stroke-width="0.3"/>

    <circle cx="250" cy="500" r="4" stroke="rgba(0,0,0,0.088)" stroke-width="0.3"/>
    <circle cx="250" cy="500" r="12" stroke="rgba(0,0,0,0.063)" stroke-width="0.3"/>
    <circle cx="250" cy="500" r="26" stroke="rgba(0,0,0,0.042)" stroke-width="0.3"/>
    <circle cx="250" cy="500" r="44" stroke="rgba(0,0,0,0.028)" stroke-width="0.3"/>

    <circle cx="600" cy="120" r="4" stroke="rgba(0,0,0,0.098)" stroke-width="0.3"/>
    <circle cx="600" cy="120" r="14" stroke="rgba(0,0,0,0.070)" stroke-width="0.3"/>
    <circle cx="600" cy="120" r="28" stroke="rgba(0,0,0,0.049)" stroke-width="0.3"/>

    <circle cx="150" cy="480" r="4" stroke="rgba(0,0,0,0.088)" stroke-width="0.3"/>
    <circle cx="150" cy="480" r="14" stroke="rgba(0,0,0,0.063)" stroke-width="0.3"/>
    <circle cx="150" cy="480" r="30" stroke="rgba(0,0,0,0.042)" stroke-width="0.3"/>

    <circle cx="700" cy="300" r="4" stroke="rgba(0,0,0,0.088)" stroke-width="0.3"/>
    <circle cx="700" cy="300" r="14" stroke="rgba(0,0,0,0.063)" stroke-width="0.3"/>
    <circle cx="700" cy="300" r="30" stroke="rgba(0,0,0,0.042)" stroke-width="0.3"/>
  </g>

  <!-- Subtle cyan accent — outermost contours only -->
  <g fill="none" stroke-linecap="round" filter="url(#w1)">
    <circle cx="400" cy="370" r="270" stroke="rgba(0,131,143,0.045)" stroke-width="0.4"/>
    <circle cx="400" cy="370" r="310" stroke="rgba(0,131,143,0.030)" stroke-width="0.3"/>
    <circle cx="190" cy="610" r="170" stroke="rgba(0,131,143,0.045)" stroke-width="0.3"/>
    <circle cx="660" cy="190" r="175" stroke="rgba(0,131,143,0.036)" stroke-width="0.3"/>
  </g>
</svg>