<svg xmlns="http://www.w3.org/2000/svg" width="1200" height="1200" viewBox="0 0 1200 1200">
  <g fill="none" stroke-linecap="round" stroke-linejoin="round">
    <path d="M340 280 C355 268 378 262 395 270 C412 278 418 298 408 315 C398 332 372 338 355 328 C338 318 328 295 340 280Z" stroke="rgba(0,0,0,0.40)" stroke-width="2.2"/>
    <path d="M310 270 C330 248 370 235 405 248 C440 261 452 295 438 325 C424 355 380 368 345 352 C310 336 292 298 310 270Z" stroke="rgba(0,0,0,0.34)" stroke-width="2.0"/>
    <path d="M278 262 C305 228 365 210 415 228 C465 246 482 292 462 335 C442 378 385 398 335 378 C285 358 255 302 278 262Z" stroke="rgba(0,0,0,0.26)" stroke-width="1.8"/>
    <path d="M245 258 C278 208 358 185 425 208 C492 231 515 292 488 348 C461 404 388 432 322 405 C256 378 218 312 245 258Z" stroke="rgba(0,0,0,0.20)" stroke-width="1.6"/>
    <path d="M212 255 C250 188 350 160 435 188 C520 216 548 292 515 362 C482 432 392 465 312 432 C232 399 185 328 212 255Z" stroke="rgba(0,0,0,0.30)" stroke-width="3.0"/>
    <path d="M180 255 C222 168 342 135 445 168 C548 201 582 295 542 378 C502 461 395 500 300 462 C205 424 148 345 180 255Z" stroke="rgba(0,0,0,0.15)" stroke-width="1.5"/>
    <path d="M415 245 C455 225 510 210 565 205 C620 200 680 208 725 225" stroke="rgba(0,0,0,0.24)" stroke-width="1.8"/>
    <path d="M440 268 C478 248 530 235 585 232 C640 229 700 238 745 255" stroke="rgba(0,0,0,0.18)" stroke-width="1.5"/>
    <path d="M465 292 C500 272 548 262 605 260 C662 258 718 268 760 285" stroke="rgba(0,0,0,0.13)" stroke-width="1.3"/>
    <path d="M820 580 C845 558 885 550 910 568 C935 586 938 618 918 642 C898 666 860 672 835 652 C810 632 800 602 820 580Z" stroke="rgba(0,0,0,0.38)" stroke-width="2.2"/>
    <path d="M785 565 C815 532 875 520 915 545 C955 570 962 618 935 652 C908 686 855 698 820 672 C785 646 758 598 785 565Z" stroke="rgba(0,0,0,0.30)" stroke-width="1.9"/>
    <path d="M748 548 C785 505 862 488 918 520 C974 552 985 618 952 665 C919 712 848 728 800 698 C752 668 715 595 748 548Z" stroke="rgba(0,0,0,0.22)" stroke-width="1.7"/>
    <path d="M710 532 C752 478 848 458 920 495 C992 532 1008 618 968 678 C928 738 840 758 778 722 C716 686 672 588 710 532Z" stroke="rgba(0,0,0,0.30)" stroke-width="3.0"/>
    <path d="M672 518 C720 452 835 428 922 472 C1009 516 1028 618 985 692 C942 766 832 790 758 748 C684 706 632 588 672 518Z" stroke="rgba(0,0,0,0.15)" stroke-width="1.5"/>
    <path d="M545 378 C575 415 595 465 585 515 C575 565 545 605 515 632" stroke="rgba(0,0,0,0.24)" stroke-width="1.7"/>
    <path d="M568 358 C602 400 625 458 612 518 C599 578 565 625 532 658" stroke="rgba(0,0,0,0.18)" stroke-width="1.5"/>
    <path d="M592 338 C628 385 655 452 640 522 C625 592 585 645 548 682" stroke="rgba(0,0,0,0.13)" stroke-width="1.3"/>
    <path d="M220 835 C245 812 288 802 318 818 C348 834 358 868 338 895 C318 922 275 930 245 912 C215 894 198 858 220 835Z" stroke="rgba(0,0,0,0.36)" stroke-width="2.0"/>
    <path d="M185 822 C215 788 278 775 320 798 C362 821 375 868 350 905 C325 942 268 955 225 932 C182 909 158 858 185 822Z" stroke="rgba(0,0,0,0.28)" stroke-width="1.8"/>
    <path d="M148 808 C185 762 268 745 322 775 C376 805 392 868 362 918 C332 968 255 985 198 955 C141 925 118 858 148 808Z" stroke="rgba(0,0,0,0.20)" stroke-width="1.6"/>
    <path d="M112 795 C155 738 258 718 325 752 C392 786 412 868 378 932 C344 996 248 1018 175 982 C102 946 78 838 112 795Z" stroke="rgba(0,0,0,0.28)" stroke-width="2.8"/>
    <path d="M325 798 C378 778 445 772 512 790 C579 808 632 845 658 895" stroke="rgba(0,0,0,0.20)" stroke-width="1.6"/>
    <path d="M348 775 C405 752 478 745 552 768 C626 791 685 832 715 888" stroke="rgba(0,0,0,0.15)" stroke-width="1.4"/>
    <path d="M958 168 C985 148 1018 142 1042 158 C1066 174 1070 205 1052 228 C1034 251 1000 258 975 240 C950 222 938 192 958 168Z" stroke="rgba(0,0,0,0.34)" stroke-width="2.0"/>
    <path d="M928 152 C962 125 1010 118 1042 138 C1074 158 1082 198 1058 228 C1034 258 992 268 958 248 C924 228 900 182 928 152Z" stroke="rgba(0,0,0,0.26)" stroke-width="1.7"/>
    <path d="M898 138 C938 102 1000 92 1042 118 C1084 144 1095 195 1065 232 C1035 269 982 282 942 258 C902 234 862 178 898 138Z" stroke="rgba(0,0,0,0.19)" stroke-width="1.5"/>
    <path d="M868 125 C915 78 992 65 1045 98 C1098 131 1112 195 1078 242 C1044 289 978 305 928 275 C878 245 828 172 868 125Z" stroke="rgba(0,0,0,0.13)" stroke-width="1.3"/>
    <path d="M658 995 C678 978 710 972 732 985 C754 998 758 1025 742 1045 C726 1065 698 1068 678 1052 C658 1036 642 1012 658 995Z" stroke="rgba(0,0,0,0.32)" stroke-width="1.8"/>
    <path d="M632 982 C658 958 705 948 735 968 C765 988 772 1025 752 1052 C732 1079 692 1088 662 1068 C632 1048 610 1008 632 982Z" stroke="rgba(0,0,0,0.24)" stroke-width="1.5"/>
    <path d="M605 968 C638 938 698 925 738 948 C778 971 788 1022 762 1058 C736 1094 685 1105 648 1082 C611 1059 578 1002 605 968Z" stroke="rgba(0,0,0,0.17)" stroke-width="1.3"/>
    <path d="M65 545 C125 468 275 418 428 428 C581 438 688 488 748 545 C808 602 818 668 785 722" stroke="rgba(0,0,0,0.13)" stroke-width="1.4"/>
    <path d="M42 598 C105 512 268 458 438 468 C608 478 725 535 792 598 C859 661 872 738 835 802" stroke="rgba(0,0,0,0.10)" stroke-width="1.2"/>
    <path d="M478 738 C505 718 545 712 572 728 C599 744 605 778 588 802 C571 826 538 832 512 815 C486 798 455 762 478 738Z" stroke="rgba(0,0,0,0.20)" stroke-width="1.5"/>
    <path d="M455 725 C488 698 542 690 578 710 C614 730 622 775 602 805 C582 835 542 845 508 825 C474 805 428 755 455 725Z" stroke="rgba(0,0,0,0.15)" stroke-width="1.3"/>
    <path d="M195 305 C228 235 340 200 445 225 C550 250 592 332 558 412 C524 492 418 532 318 498 C218 464 168 378 195 305Z" stroke="rgba(0,136,204,0.15)" stroke-width="3.2"/>
    <path d="M695 508 C738 438 858 412 942 455 C1026 498 1052 598 1005 675 C958 752 852 785 768 742 C684 699 655 582 695 508Z" stroke="rgba(0,136,204,0.12)" stroke-width="2.8"/>
    <path d="M845 672 C835 715 818 762 795 808 C772 854 745 895 718 928" stroke="rgba(0,0,0,0.18)" stroke-width="1.5"/>
    <path d="M868 685 C858 732 838 782 812 832 C786 882 755 925 725 962" stroke="rgba(0,0,0,0.13)" stroke-width="1.3"/>
    <path d="M862 175 C818 195 768 208 718 215 C668 222 618 222 575 218" stroke="rgba(0,0,0,0.17)" stroke-width="1.4"/>
    <path d="M878 205 C832 225 778 240 725 248 C672 256 618 255 565 250" stroke="rgba(0,0,0,0.12)" stroke-width="1.2"/>
  </g>
</svg>
